<?xml version="1.0" standalone="no"?>
<!DOCTYPE svg PUBLIC "-//W3C//DTD SVG 20010904//EN"
    "http://www.w3.org/TR/2001/REC-SVG-20010904/DTD/svg10.dtd">
<svg version="1.0" xmlns="http://www.w3.org/2000/svg"
     width="252.000000pt" height="252.000000pt" viewBox="0 0 252.000000 252.000000"
     preserveAspectRatio="xMidYMid meet">
  <metadata>
    Created by potrace 1.14, written by Peter Selinger 2001-2017
  </metadata>
  <g transform="translate(0.000000,252.000000) scale(0.100000,-0.100000)"
     fill="#000000" stroke="none">
    <path d="M370 1819 c-72 -14 -171 -68 -225 -124 -55 -56 -96 -131 -121 -222
-23 -81 -27 -301 -7 -390 76 -346 375 -478 745 -329 82 34 193 102 228 142 52
60 33 140 -42 174 -58 26 -100 18 -176 -32 -113 -74 -191 -102 -287 -102 -81
-1 -115 13 -156 64 -69 86 -84 340 -28 471 55 128 182 151 365 68 49 -22 261
-171 284 -199 3 -3 34 -28 70 -55 36 -27 67 -52 70 -55 3 -3 23 -19 45 -36 22
-16 65 -49 95 -72 30 -24 62 -49 70 -55 313 -246 353 -273 474 -321 130 -52
295 -69 391 -41 22 6 43 12 48 13 39 9 112 56 157 102 102 102 141 216 145
420 4 182 -20 288 -86 392 -60 93 -159 160 -278 188 -51 12 -175 10 -245 -5
-111 -23 -276 -103 -353 -171 -45 -39 -48 -45 -47 -88 1 -34 7 -53 25 -72 58
-63 122 -63 219 0 66 43 126 74 158 81 9 2 33 9 52 14 51 16 137 13 176 -5 74
-35 116 -143 119 -307 3 -155 -42 -274 -117 -313 -108 -56 -310 8 -475 151
-14 11 -20 16 -83 65 -25 19 -52 40 -60 47 -147 118 -569 443 -610 471 -65 43
-182 95 -265 117 -71 19 -212 26 -275 14z"/>
  </g>
</svg>
