<svg width="84" height="38" viewBox="0 0 84 38" fill="inheritColor" xmlns="http://www.w3.org/2000/svg">
<path d="M74.5276 1.18187C67.0045 -1.89961 57.622 1.49798 51.6025 6.15992C49.744 7.582 49.5672 10.1108 51.1601 11.7701C52.7534 13.4294 55.5859 13.5872 57.4448 12.1651C61.8706 8.68867 67.6233 7.10813 70.8983 8.37267C74.7044 9.87362 75.2357 15.6422 75.2357 18.8813C75.2357 22.1211 74.7053 27.8889 70.8983 29.3901C67.6233 30.8129 61.8694 29.2323 57.4448 25.756L32.4845 6.23821C26.4658 1.57634 17.0836 -1.82132 9.55946 1.26016C5.22213 2.99903 0 7.50256 0 18.9592C0 30.4158 5.22213 34.9204 9.55946 36.7369C17.0829 39.8183 26.465 36.4206 32.4845 31.7586C34.3432 30.3366 34.5199 27.8078 32.9269 26.1483C31.3339 24.4891 28.5011 24.3314 26.6424 25.7535C22.2167 29.2298 16.4637 30.8103 13.1887 29.5458C9.3829 28.0448 8.85135 22.2764 8.85135 19.0373C8.85135 15.7975 9.38213 10.0296 13.1887 8.52862C16.3755 7.18537 22.2168 8.84473 26.5542 12.321L51.5145 31.8371C55.9403 35.3134 62.1354 38 68.1549 38C70.2794 38 72.4031 37.684 74.4396 36.8143C78.7767 35.0764 83.9989 30.4933 83.9989 19.037C84.0865 7.50177 78.8651 2.99896 74.5276 1.18187Z" fill="inheritColor"/>
</svg>
